<?xml version="1.0" encoding="UTF-8"?>
<!DOCTYPE svg PUBLIC "-//W3C//DTD SVG 1.1//EN" "http://www.w3.org/Graphics/SVG/1.1/DTD/svg11.dtd">
<svg version="1.1" xmlns="http://www.w3.org/2000/svg" xmlns:xlink="http://www.w3.org/1999/xlink" x="0" y="0" width="192" height="131.539" viewBox="0, 0, 192, 131.539">
  <g id="White">
    <path d="M-0,-0 L192,-0 L192,131.539 L-0,131.539 L-0,-0 z" fill="#FFFFFF"/>
  </g>
  <g id="Layer_2">
    <path d="M-0,-0 L96.029,-0 L96.029,83.707 L-0,83.707 L-0,-0 z" fill="#1E34B2"/>
    <path d="M12.533,11.573 L24.203,11.573 L24.203,23.243 L12.533,23.243 L12.533,11.573 z" fill="#FFFFFF"/>
    <path d="M36.168,11.573 L47.838,11.573 L47.838,23.243 L36.168,23.243 L36.168,11.573 z" fill="#FFFFFF"/>
    <path d="M60.184,11.573 L71.854,11.573 L71.854,23.243 L60.184,23.243 L60.184,11.573 z" fill="#FFFFFF"/>
    <path d="M12.533,59.481 L24.203,59.481 L24.203,71.151 L12.533,71.151 L12.533,59.481 z" fill="#FFFFFF"/>
    <path d="M36.168,59.481 L47.838,59.481 L47.838,71.151 L36.168,71.151 L36.168,59.481 z" fill="#FFFFFF"/>
    <path d="M60.184,59.481 L71.854,59.481 L71.854,71.151 L60.184,71.151 L60.184,59.481 z" fill="#FFFFFF"/>
    <path d="M24.203,36.019 L35.872,36.019 L35.872,47.688 L24.203,47.688 L24.203,36.019 z" fill="#FFFFFF"/>
    <path d="M47.838,36.019 L59.507,36.019 L59.507,47.688 L47.838,47.688 L47.838,36.019 z" fill="#FFFFFF"/>
    <path d="M71.854,36.019 L83.523,36.019 L83.523,47.688 L71.854,47.688 L71.854,36.019 z" fill="#FFFFFF"/>
    <path d="M96.029,-0 L192,-0 L192,11.958 L96.029,11.958 L96.029,-0 z" fill="#DA3E1F"/>
    <path d="M96.029,23.943 L192,23.943 L192,35.901 L96.029,35.901 L96.029,23.943 z" fill="#DA3E1F"/>
    <path d="M96.029,47.913 L192,47.913 L192,59.871 L96.029,59.871 L96.029,47.913 z" fill="#DA3E1F"/>
    <path d="M96.029,71.749 L192,71.749 L192,83.707 L96.029,83.707 L96.029,71.749 z" fill="#DA3E1F"/>
    <path d="M-0,95.665 L192,95.665 L192,107.623 L-0,107.623 L-0,95.665 z" fill="#DA3E1F"/>
    <path d="M-0,119.581 L192,119.581 L192,131.539 L-0,131.539 L-0,119.581 z" fill="#DA3E1F"/>
  </g>
</svg>
